<svg width="152" height="40" viewBox="0 0 152 40" fill="none" xmlns="http://www.w3.org/2000/svg">
<g clip-path="url(#clip0_258_31)">
<path d="M88.4651 4.55814V0L103.442 6.04651V9.76744L88.4651 15.814V11.1628L97.2093 7.90698L88.4651 4.55814Z" fill="#AEAEAE"/>
<path d="M5.76744 40.0002C2.60465 40.0002 0 38.4188 0 34.8839V34.6979C0 30.4188 3.72093 28.9304 8.27907 28.9304H10.4186V28.0932C10.4186 26.3258 9.67442 25.3025 7.81395 25.3025C6.13953 25.3025 5.30233 26.2328 5.2093 27.5351H0.55814C0.930233 23.6281 4 21.7676 8.09302 21.7676C12.2791 21.7676 15.3488 23.5351 15.3488 27.9072V39.6281H10.6047V37.5816C9.67442 38.8839 8.09302 40.0002 5.76744 40.0002ZM10.4186 33.8607V32.1862H8.46512C6.04651 32.1862 4.83721 32.8374 4.83721 34.4188V34.6048C4.83721 35.8141 5.5814 36.6514 7.25581 36.6514C8.93023 36.5583 10.4186 35.6281 10.4186 33.8607ZM26.4186 40.0002C21.5814 40.0002 18.0465 37.0235 18.0465 31.07V30.7909C18.0465 24.8374 21.7674 21.6746 26.4186 21.6746C30.4186 21.6746 33.6744 23.7211 34.0465 28.2793H29.3954C29.1163 26.6048 28.186 25.4886 26.5116 25.4886C24.4651 25.4886 22.9767 27.163 22.9767 30.6048V31.163C22.9767 34.6979 24.2791 36.2793 26.5116 36.2793C28.186 36.2793 29.3953 35.07 29.6744 33.1165H34.1395C33.8605 37.2095 31.1628 40.0002 26.4186 40.0002ZM44.6512 40.0002C39.814 40.0002 36.2791 37.0235 36.2791 31.07V30.7909C36.2791 24.8374 40 21.6746 44.6512 21.6746C48.6512 21.6746 51.907 23.7211 52.2791 28.2793H47.6279C47.3488 26.6048 46.4186 25.4886 44.7442 25.4886C42.6977 25.4886 41.2093 27.163 41.2093 30.6048V31.163C41.2093 34.6979 42.5116 36.2793 44.7442 36.2793C46.4186 36.2793 47.6279 35.07 47.907 33.1165H52.3721C52.093 37.2095 49.3954 40.0002 44.6512 40.0002ZM62.9767 40.0002C57.9535 40.0002 54.5116 37.0234 54.5116 31.163V30.7909C54.5116 24.9304 58.1395 21.6746 62.8837 21.6746C67.2558 21.6746 70.8837 24.0932 70.8837 29.9537V32.0932H59.4419C59.6279 35.256 61.0233 36.4653 63.0698 36.4653C64.9302 36.4653 65.9535 35.4421 66.3256 34.2328H70.8837C70.3256 37.4886 67.5349 40.0002 62.9767 40.0002ZM59.5349 28.8374H66.0465C65.9535 26.2328 64.7442 25.1165 62.7907 25.1165C61.3023 25.2095 59.907 26.0467 59.5349 28.8374ZM73.8605 22.1397H78.7907V24.7444C79.6279 23.07 81.3954 21.7676 84.093 21.7676C87.2558 21.7676 89.3953 23.7211 89.3953 27.9072V39.6281H84.4651V28.6514C84.4651 26.6048 83.6279 25.6746 81.8605 25.6746C80.186 25.6746 78.7907 26.6979 78.7907 28.9304V39.6281H73.8605V22.1397ZM98.4186 16.8374V22.1397H101.767V25.7676H98.4186V34.0467C98.4186 35.349 98.9767 36.0002 100.186 36.0002C100.93 36.0002 101.395 35.9072 101.86 35.7211V39.5351C101.302 39.7211 100.279 39.9072 99.0698 39.9072C95.2558 39.9072 93.4884 38.1397 93.4884 34.6048V25.7676H91.4419V22.1397H93.4884V18.8839L98.4186 16.8374ZM120.186 39.6281H115.349V37.0234C114.512 38.6979 112.837 40.0002 110.233 40.0002C107.07 40.0002 104.744 38.0467 104.744 33.9537V22.1397H109.674V33.3025C109.674 35.349 110.512 36.2793 112.186 36.2793C113.86 36.2793 115.256 35.163 115.256 33.0234V22.1397H120.186V39.6281ZM123.814 22.1397H128.744V25.3955C129.767 23.07 131.442 21.9537 134.047 21.9537V26.7909C130.698 26.7909 128.744 27.8141 128.744 30.6979V39.7211H123.814V22.1397ZM144 40.0002C138.977 40.0002 135.535 37.0234 135.535 31.163V30.7909C135.535 24.9304 139.163 21.6746 143.907 21.6746C148.279 21.6746 151.907 24.0932 151.907 29.9537V32.0932H140.558C140.744 35.256 142.14 36.4653 144.186 36.4653C146.047 36.4653 147.07 35.4421 147.442 34.2328H152C151.256 37.4886 148.558 40.0002 144 40.0002ZM140.465 28.8374H147.07C146.977 26.2328 145.767 25.1165 143.814 25.1165C142.326 25.2095 140.93 26.0467 140.465 28.8374Z" fill="#AEAEAE"/>
</g>
<defs>
<clipPath id="clip0_258_31">
<rect width="152" height="40" fill="white"/>
</clipPath>
</defs>
</svg>
