<svg width="270" height="40" viewBox="0 0 270 40" fill="none" xmlns="http://www.w3.org/2000/svg">
<path d="M3.65079 16.667L3.33333 6.98445C3.1746 6.34953 2.53968 6.03206 1.11111 5.7146C0.15873 5.39714 0 5.23841 0 4.44476V3.49238C0 2.85746 0.15873 2.69873 0.634921 2.69873C1.11111 2.69873 2.06349 2.69873 3.33333 2.85746L6.8254 3.01619L11.5873 2.85746L16.6667 2.69873C18.5714 2.69873 21.9048 2.69873 24.2857 5.39714C25.7143 6.82572 26.5079 8.88921 26.5079 11.1114C26.5079 17.3019 21.1111 18.7305 19.6825 19.0479C18.254 19.3654 18.254 19.3654 18.254 19.5241C18.254 19.8416 18.4127 19.8416 19.6825 20.0003C23.0159 20.3178 25.0794 21.2702 26.5079 23.0162C28.254 25.2384 28.8889 27.6194 28.8889 29.0479C28.8889 34.1273 24.4444 39.8416 17.1429 39.8416C15.2381 39.8416 13.6508 39.6829 12.2222 39.6829C10.7936 39.5241 9.04762 39.5241 6.98413 39.5241C6.19048 39.5241 4.7619 39.5241 3.49206 39.6829C2.38095 39.6829 1.11111 39.8416 0.634921 39.8416C0.15873 39.8416 0 39.5241 0 39.0479V38.0956C0 37.3019 0.31746 37.1432 1.26984 36.9844C3.49206 36.1908 3.65079 35.7146 3.65079 34.4448C3.80952 32.2225 3.80952 28.413 3.80952 25.3971C3.65079 25.0797 3.65079 16.667 3.65079 16.667ZM10.1587 17.3019C10.1587 18.0956 10.1587 18.0956 11.5873 18.0956C12.8621 18.0621 14.134 17.9562 15.3968 17.7781C17.7778 17.1432 19.6825 14.6035 19.6825 11.7464C19.6825 10.3178 19.2063 6.03206 13.9683 6.03206C10.6349 6.03206 10.6349 6.03206 10.4762 6.34952C10.3175 6.50825 10.3175 10.0003 10.3175 10.6352L10.1587 17.3019ZM10.1587 28.413V32.6987C10.1587 35.3971 10.3175 36.1908 13.4921 36.1908C15.2381 36.1908 17.1429 36.0321 18.7302 35.0797C20.6349 33.8098 22.0635 31.5876 22.0635 28.5717C22.0635 24.6035 19.5238 22.6987 18.254 21.9051C16.9841 21.4289 15.7143 21.2702 12.0635 21.2702C10.6349 21.2702 10.6349 21.5876 10.6349 22.2225L10.1587 28.413Z" fill="#AEAEAE"/>
<path d="M41.4287 24.4442C39.6827 24.4442 39.2065 24.4442 39.2065 26.3489C39.2065 31.2696 42.5398 35.0791 47.143 35.0791C48.8891 35.0791 51.5875 34.4442 53.3335 33.4918C53.651 33.333 55.0795 32.3807 55.2383 32.3807C55.397 32.3807 55.397 32.6981 55.397 32.8569C55.397 33.0156 55.0795 37.3013 54.7621 37.6188C54.6033 37.9362 50.9525 39.841 46.1906 39.841C37.9367 39.841 33.3335 34.1267 33.3335 27.1426C33.3335 20.4759 37.6192 13.1743 46.3494 13.1743C51.5875 13.1743 55.8732 15.714 55.8732 22.5394C55.8732 24.4442 54.7621 24.4442 53.3335 24.4442C53.651 24.4442 41.4287 24.4442 41.4287 24.4442V24.4442ZM40.4764 21.2696C40.4764 21.587 40.6351 21.9045 41.27 21.9045C41.9049 21.9045 44.6033 21.587 47.3017 21.4283C50.0002 21.2696 50.3176 21.1108 50.3176 20.3172C50.3176 19.9997 50.1589 16.0315 46.3494 16.0315C41.4287 16.1902 40.4764 20.7934 40.4764 21.2696V21.2696Z" fill="#AEAEAE"/>
<path d="M58.4131 15.3965C58.4131 14.6029 58.5719 14.4442 59.3655 14.2854L67.6195 13.1743C68.2544 13.1743 68.2544 13.8092 68.2544 14.1267V16.6664C68.2544 18.2537 68.2544 19.0473 68.7306 19.0473C69.048 19.0473 69.3655 18.5711 71.7465 15.8727C73.0163 14.4442 74.2861 13.1743 77.7782 13.1743C79.2068 13.1743 79.5242 13.6505 79.5242 14.2854L79.3655 17.9362C79.3655 18.4124 79.3655 19.2061 78.7306 19.2061C78.4131 19.2061 77.302 18.7299 75.2385 18.7299C72.2226 18.7299 70.7941 19.841 70.3179 20.9521C69.5242 22.3807 69.5242 23.8092 69.5242 27.6188V29.9997L69.683 34.6029C69.8417 35.8727 70.1592 35.8727 73.0163 36.5077C74.6036 36.9838 74.7623 36.9838 74.7623 37.6188V38.2537C74.7623 38.5711 74.7623 39.0473 74.1274 39.0473C73.175 39.0473 72.2226 38.8886 66.1909 38.8886L60.4766 39.0473C60.0004 39.0473 60.0004 38.5711 60.0004 38.4124V37.6188C60.0004 36.9838 60.1592 36.8251 61.5877 36.3489C63.0163 35.8727 63.3338 35.714 63.4925 34.6029C63.6512 32.8569 63.6512 28.8886 63.6512 27.46V25.8727C63.6512 23.968 63.4925 18.2537 61.429 17.46C60.9528 17.3013 60.6353 17.1426 59.048 17.1426C58.4131 17.1426 58.2544 16.9838 58.2544 16.5077V15.714H58.4131V15.3965Z" fill="#AEAEAE"/>
<path d="M90.1592 24.4442C88.4132 24.4442 87.937 24.4442 87.937 26.3489C87.937 31.2696 91.2703 35.0791 95.8735 35.0791C97.6195 35.0791 100.318 34.4442 102.064 33.4918C102.381 33.333 103.81 32.3807 103.969 32.3807C104.127 32.3807 104.127 32.6981 104.127 32.8569C104.127 33.0156 103.81 37.3013 103.493 37.6188C103.334 37.9362 99.683 39.841 94.9211 39.841C86.6671 39.841 82.064 34.1267 82.064 27.1426C82.064 20.4759 86.3497 13.1743 95.0798 13.1743C100.318 13.1743 104.604 15.714 104.604 22.5394C104.604 24.4442 103.493 24.4442 102.064 24.4442C102.381 24.4442 90.1592 24.4442 90.1592 24.4442V24.4442ZM89.2068 21.2696C89.2068 21.587 89.3656 21.9045 90.0005 21.9045C90.6354 21.9045 93.3338 21.587 96.0322 21.4283C98.7306 21.2696 99.0481 21.1108 99.0481 20.3172C99.0481 19.9997 98.8894 16.0315 95.0798 16.0315C90.1592 16.1902 89.2068 20.7934 89.2068 21.2696V21.2696Z" fill="#AEAEAE"/>
<path d="M107.302 15.0794C107.302 14.2857 107.46 14.127 108.095 14.127L116.508 13.1746C116.984 13.1746 116.984 13.9683 116.984 14.6032C117.143 15.5556 117.143 17.619 117.143 17.7778C117.143 17.9365 117.302 18.4127 117.619 18.4127C117.778 18.4127 117.937 18.254 118.73 17.4603C121.429 14.7619 122.381 13.1746 126.667 13.1746C130.318 13.1746 133.968 14.6032 134.445 18.0952C134.603 19.3651 134.603 19.6825 134.603 25.873V27.4603C134.603 35.7143 134.603 35.7143 135.556 36.0317C135.873 36.1905 137.778 36.6667 137.937 36.8254C138.413 36.9841 138.413 37.3016 138.413 37.619V38.5714C138.413 39.0476 138.254 39.2063 137.937 39.2063C136.984 39.2063 136.191 39.0476 132.064 39.0476L125.873 39.2063C125.397 39.2063 125.397 38.7302 125.397 38.5714V37.7778C125.397 37.1429 125.556 36.9841 126.984 36.5079C128.413 36.0317 128.73 35.873 128.889 34.7619C129.048 33.3333 129.048 29.3651 129.048 27.619V26.0317C129.048 21.5873 129.048 18.0952 124.603 18.0952C121.905 18.0952 120.159 19.5238 119.365 20.6349C118.254 21.9048 118.254 23.9683 118.254 26.1905V27.4603C118.254 35.7143 118.254 35.7143 119.207 36.0317C119.524 36.1905 121.429 36.6667 121.587 36.8254C122.064 36.9841 122.064 37.3016 122.064 37.619V38.5714C122.064 39.0476 121.905 39.2063 121.587 39.2063C120.476 39.2063 119.048 39.0476 115.556 39.0476L109.524 39.2063C109.048 39.2063 109.048 38.7302 109.048 38.5714V37.7778C109.048 37.1429 109.207 36.9841 110.635 36.5079C112.064 36.0317 112.381 35.873 112.54 34.7619C112.699 33.4921 112.699 29.5238 112.699 27.619V25.873C112.699 24.2857 112.54 18.7302 111.905 17.9365C111.587 17.4603 110.953 17.1429 109.524 17.1429C108.254 17.1429 108.095 16.8254 108.095 16.5079V15.3968H107.302V15.0794ZM158.572 18.254C158.572 19.0476 158.413 19.2063 157.937 19.2063H157.143C156.667 19.2063 156.667 19.0476 156.191 17.9365C155.397 15.7143 152.222 15.7143 151.746 15.7143C147.46 15.7143 147.46 19.0476 147.46 19.2063C147.46 21.746 149.841 22.6984 154.921 24.9206C157.937 26.1905 160.318 28.7302 160.318 31.9048C160.318 35.5556 157.46 39.8413 149.365 39.8413C147.03 39.8566 144.713 39.4256 142.54 38.5714C141.746 38.0952 141.587 37.9365 141.746 37.1429L142.064 33.6508C142.064 33.3333 142.064 32.8571 142.857 32.8571H143.492C144.127 32.8571 144.127 33.0159 144.445 34.127C144.921 36.0317 147.619 37.3016 149.683 37.3016C152.222 37.3016 154.286 36.0317 154.286 33.8095C154.286 31.9048 152.699 30.9524 150.635 30.1587C145.397 27.619 142.222 26.0317 142.222 21.4286C142.222 18.8889 143.175 15.873 146.826 14.2857C149.048 13.3333 151.429 13.3333 152.381 13.3333C154.921 13.3333 157.302 13.9683 158.095 14.4444C158.572 14.7619 158.73 15.0794 158.73 15.5556L158.572 18.254ZM183.81 20C183.651 20.3175 183.492 20.3175 183.175 20.3175H182.222C181.587 20.3175 181.429 19.8413 180.953 18.8889C180.794 18.4127 179.524 17.4603 177.143 17.4603C172.54 17.4603 169.524 21.746 169.524 26.3492C169.524 31.5873 172.857 35.3968 177.619 35.3968C179.829 35.4106 181.99 34.7457 183.81 33.4921C184.127 33.3333 184.762 32.8571 184.921 32.8571C185.08 32.8571 185.08 33.1746 185.08 33.3333C185.08 33.6508 184.445 37.9365 184.286 38.254C183.81 38.8889 179.683 40 176.508 40C170.476 40 163.492 35.873 163.492 27.4603C163.492 22.3809 166.984 13.3333 177.46 13.3333C180.953 13.3333 183.175 14.127 183.651 14.4444C184.603 14.9206 184.445 15.873 184.445 16.0317L183.81 20ZM208.413 23.9683C208.413 21.4286 208.413 17.7778 203.968 17.7778C202.222 17.7778 200.635 18.5714 199.524 20C197.778 21.9048 197.778 23.6508 197.778 25.7143V27.4603L198.095 35.5555C198.254 35.873 198.572 36.1905 200.794 36.8254C201.429 36.9841 201.429 37.3016 201.429 37.7778V38.5714C201.429 39.0476 201.27 39.2063 200.794 39.2063C200.159 39.2063 199.048 39.0476 194.921 39.0476L188.889 39.2063C188.707 39.1966 188.533 39.1302 188.39 39.0163C188.248 38.9024 188.145 38.7469 188.095 38.5714V37.7778C188.095 37.1429 188.254 36.9841 189.683 36.5079C190.953 36.0317 191.429 35.873 191.587 34.7619C191.746 33.6508 191.746 30.3175 191.746 27.619V16.1905L191.429 4.7619C191.111 3.96825 190.635 3.96825 188.73 3.65079C187.937 3.49206 187.778 3.1746 187.778 2.85714V1.90476C187.778 1.26984 188.254 1.26984 188.572 1.26984L196.349 0.158731C196.826 6.03142e-07 196.984 0 196.984 0C197.619 0 197.619 0.476191 197.619 0.952382L197.46 7.77778L197.302 16.9841C197.302 17.619 197.302 18.254 197.46 18.254L199.048 16.6667C201.429 14.2857 202.54 13.1746 206.032 13.1746C206.984 13.1746 210.159 13.1746 212.064 14.9206C213.968 16.6667 213.968 17.9365 213.968 24.4444V27.4603C213.968 35.7143 214.127 35.7143 214.921 36.0317C215.238 36.1905 217.143 36.6667 217.302 36.8254C217.448 36.8998 217.569 37.0136 217.654 37.1539C217.738 37.2942 217.781 37.4554 217.778 37.619V38.5714C217.778 39.0476 217.619 39.2063 217.143 39.2063C216.667 39.2063 215.397 39.0476 210.953 39.0476L205.08 39.2063C204.603 39.2063 204.603 38.7302 204.603 38.5714V37.7778C204.603 37.1429 204.762 36.9841 206.191 36.5079C207.46 36.0317 207.937 35.873 208.095 34.7619C208.254 33.6508 208.254 30.3175 208.254 27.619L208.413 23.9683ZM244.286 17.619C245.873 20.1587 246.826 23.0159 246.826 25.873C246.826 31.2698 243.81 39.8413 233.175 39.8413C224.127 39.8413 220.635 33.1746 220.635 27.1429C220.635 19.8413 225.238 13.1746 233.492 13.1746C238.889 13.0159 242.381 14.6032 244.286 17.619ZM226.826 26.0317C226.826 31.2698 229.683 35.7143 234.127 35.7143C237.937 35.7143 240.794 31.5873 240.794 26.8254C240.794 23.1746 239.207 16.8254 233.81 16.8254C229.048 16.8254 226.826 21.2698 226.826 26.0317ZM253.651 20.6349C253.651 17.619 253.651 17.4603 252.381 17.4603C252.064 17.4603 250.476 17.619 250 17.619H249.207C248.889 17.619 248.73 17.4603 248.73 17.3016C248.73 17.1429 248.889 16.8254 248.889 16.6667L249.524 15.0794C250 13.9683 250 13.8095 250.635 13.8095C250.953 13.8095 252.064 13.9683 252.381 13.9683C253.651 13.9683 253.651 13.4921 253.651 12.8571L253.492 7.30159C253.492 6.03175 253.968 5.87302 254.921 5.39683L258.254 4.28571L259.683 3.65079C260.159 3.65079 260.159 4.28571 260.159 4.44444C260.159 4.60317 259.841 7.77778 259.683 8.4127C259.524 9.52381 259.365 11.5873 259.365 12.5397C259.365 13.6508 260 13.6508 261.111 13.6508H265.397C265.714 13.6508 266.984 13.6508 267.937 13.4921H268.572C268.889 13.4921 269.048 13.6508 269.048 13.9683C269.048 14.4444 268.73 15.2381 268.413 16.6667C268.095 17.4603 267.937 17.619 266.984 17.619C266.349 17.619 262.54 17.3016 261.587 17.3016C260.635 17.3016 260.159 17.3016 260 17.7778C259.841 18.254 259.841 19.0476 259.841 19.5238V27.619C259.841 33.3333 259.841 35.5555 263.651 35.5555C264.445 35.5555 265.397 35.5556 267.302 35.0794C267.46 35.0794 268.413 34.7619 268.413 34.7619C268.572 34.7619 268.73 34.7619 268.73 35.2381L268.254 38.7302C267.937 39.0476 265.08 39.8413 261.746 39.8413C254.603 39.8413 253.651 37.1429 253.651 33.6508L253.81 27.7778L253.651 20.6349Z" fill="#AEAEAE"/>
</svg>
