<svg width="331" height="458" viewBox="0 0 331 458" fill="none" xmlns="http://www.w3.org/2000/svg">
<circle cx="150" cy="220" r="37" fill="#3E3E3E"/>
<circle cx="196.5" cy="329.5" r="16.5" fill="#B4C96D"/>
<circle cx="266.5" cy="280.5" r="8.5" fill="#C7A78F"/>
<circle cx="311.5" cy="424.5" r="8.5" fill="#C7A78F"/>
<circle cx="96" cy="428" r="17" fill="#C7A78F"/>
<circle cx="187" cy="441" r="17" fill="#C7A78F"/>
<circle cx="314" cy="343" r="17" fill="#C7A78F"/>
<circle cx="124" cy="78" r="17" fill="#C7A78F"/>
<circle cx="312" cy="44" r="17" fill="#C7A78F"/>
<circle cx="232" cy="98" r="11" fill="#C7A78F"/>
<circle cx="95" cy="11" r="11" fill="#C7A78F"/>
<circle cx="25" cy="133" r="11" fill="#C7A78F"/>
<circle cx="212.5" cy="8.5" r="8.5" fill="#C7A78F"/>
<circle cx="44.5" cy="52.5" r="8.5" fill="#C7A78F"/>
<circle cx="97.5" cy="323.5" r="8.5" fill="#C7A78F"/>
<circle cx="8.5" cy="245.5" r="8.5" fill="#C7A78F"/>
<circle cx="35" cy="340" r="18" fill="#C7A78F"/>
<circle cx="16.5" cy="424.5" r="8.5" fill="#C7A78F"/>
<path d="M164.5 253.846L190.584 313.758" stroke="black"/>
<circle cx="287.149" cy="219.361" r="20.5" transform="rotate(-67.7149 287.149 219.361)" fill="#B4C96D"/>
<path d="M186.768 220.371L266.913 218.633" stroke="black"/>
<circle cx="287.149" cy="219.361" r="20.5" transform="rotate(-67.7149 287.149 219.361)" fill="#B4C96D"/>
<path d="M186.768 220.371L266.913 218.633" stroke="black"/>
<circle cx="40.2198" cy="210.788" r="14.802" transform="rotate(120 40.2198 210.788)" fill="#B4C96D"/>
<path d="M112.141 219.796L54.6278 213.27" stroke="black"/>
<circle cx="177.418" cy="145.752" r="8.72188" transform="rotate(-135 177.418 145.752)" fill="#B4C96D"/>
<path d="M161.323 185.313L173.808 153.574" stroke="black"/>
<circle cx="119.9" cy="293.811" r="8.72188" transform="rotate(45 119.9 293.811)" fill="#B4C96D"/>
<path d="M135.995 254.25L123.51 285.989" stroke="black"/>
</svg>
