<svg width="159" height="40" viewBox="0 0 159 40" fill="none" xmlns="http://www.w3.org/2000/svg">
<g clip-path="url(#clip0_258_49)">
<path d="M39.3563 19.5323C39.3563 8.49966 33.0711 0 17.0935 0H0V39.0646H17.0935C33.0711 39.0646 39.3563 30.565 39.3563 19.5323ZM27.7256 19.5323C27.7256 27.2439 23.2026 30.1147 16.9174 30.1147H11.102V8.95H16.9174C23.2026 8.95 27.7256 11.8207 27.7256 19.5323Z" fill="#AEAEAE"/>
<path d="M42.0132 39.0646H74.3206V30.171H53.1151V23.4726H71.7361V15.0292H53.1151V8.89366H73.7919V0H42.0132V39.0646Z" fill="#AEAEAE"/>
<path d="M111.931 13.5657C111.931 3.71509 105.352 0 95.1314 0H77.4502V39.0646H88.5524V27.1314H95.1314C105.352 27.1314 111.931 23.4162 111.931 13.5657ZM100.418 13.5657C100.418 17.3934 98.5382 18.9695 94.015 18.9695H88.5524V8.1619H94.015C98.5382 8.1619 100.418 9.738 100.418 13.5657Z" fill="#AEAEAE"/>
<path d="M113.142 9.11883H126.006V39.0646H137.108V9.11883H149.972V0H113.142V9.11883Z" fill="#AEAEAE"/>
<path d="M145.359 33.5954C145.359 37.1306 148.345 39.9923 152.035 39.9923C155.724 39.9923 158.74 37.1306 158.74 33.5954C158.74 30.0603 155.724 27.1704 152.035 27.1704C148.345 27.1704 145.359 30.0603 145.359 33.5954ZM146.647 33.5954C146.647 30.6776 149.048 28.2927 152.035 28.2927C155.02 28.2927 157.451 30.6776 157.451 33.5954C157.451 36.5132 155.02 38.87 152.035 38.87C149.048 38.87 146.647 36.5132 146.647 33.5954ZM148.902 36.7658H151.009V34.5773H152.211L153.469 36.7658H155.753L154.23 34.1846C154.934 33.9041 155.459 33.1466 155.459 32.3048C155.459 30.8178 154.464 30.1164 152.766 30.1164H148.902V36.7658ZM153.322 32.3328C153.322 32.8659 152.972 33.0905 152.298 33.0905H151.009V31.6875H152.298C152.972 31.6875 153.322 31.856 153.322 32.3328Z" fill="#AEAEAE"/>
</g>
<defs>
<clipPath id="clip0_258_49">
<rect width="159" height="40" fill="white"/>
</clipPath>
</defs>
</svg>
