<svg width="16" height="17" viewBox="0 0 16 17" fill="none" xmlns="http://www.w3.org/2000/svg">
<path d="M4.62053 3.3194C4.62053 3.385 4.6078 3.44076 4.58234 3.48668C4.55688 3.5326 4.51233 3.56868 4.44869 3.59492L3.15036 4.16565L2.53938 5.6023C2.51392 5.6679 2.47892 5.71382 2.43437 5.74006C2.38982 5.7663 2.33572 5.77942 2.27208 5.77942C2.20843 5.77942 2.15434 5.7663 2.10979 5.74006C2.06523 5.71382 2.03023 5.6679 2.00477 5.6023L1.41289 4.16565L0.171838 3.59492C0.108194 3.56868 0.0636438 3.5326 0.0381863 3.48668C0.0127289 3.44076 1.6068e-07 3.385 1.61463e-07 3.3194C1.62245e-07 3.2538 0.0127289 3.19804 0.0381863 3.15212C0.0636438 3.1062 0.108194 3.07012 0.171838 3.04388L1.41289 2.47315L2.00477 1.0365C2.03023 0.970896 2.06523 0.924975 2.10979 0.898735C2.15434 0.872494 2.20843 0.859375 2.27208 0.859375C2.33572 0.859375 2.38982 0.872494 2.43437 0.898735C2.47892 0.924975 2.51392 0.970896 2.53938 1.0365L3.15036 2.47315L4.44869 3.04388C4.51233 3.07012 4.55688 3.1062 4.58234 3.15212C4.6078 3.19804 4.62053 3.2538 4.62053 3.3194ZM16 3.3194C16 3.37188 15.9873 3.42436 15.9618 3.47684C15.9364 3.52932 15.8918 3.56868 15.8282 3.59492L14.5871 4.16565L13.9952 5.58262C13.9698 5.64822 13.9348 5.69414 13.8902 5.72038C13.8457 5.74662 13.7916 5.75974 13.7279 5.75974C13.6643 5.75974 13.6102 5.74662 13.5656 5.72038C13.5211 5.69414 13.4861 5.64822 13.4606 5.58262L12.8687 4.16565L11.5513 3.59492C11.4877 3.56868 11.4431 3.5326 11.4177 3.48668C11.3922 3.44076 11.3795 3.385 11.3795 3.3194C11.3795 3.2538 11.3922 3.19804 11.4177 3.15212C11.4431 3.1062 11.4877 3.07012 11.5513 3.04388L12.8687 2.47315L13.4606 1.05618C13.4861 0.990576 13.5211 0.944656 13.5656 0.918416C13.6102 0.892175 13.6643 0.879055 13.7279 0.879055C13.7916 0.879055 13.8457 0.892175 13.8902 0.918416C13.9348 0.944656 13.9698 0.990576 13.9952 1.05618L14.5871 2.47315L15.8282 3.04388C15.8918 3.07012 15.9364 3.10948 15.9618 3.16196C15.9873 3.21444 16 3.26692 16 3.3194ZM12.6969 11.959C12.6969 12.064 12.6683 12.1656 12.611 12.264C12.5537 12.3625 12.4741 12.4379 12.3723 12.4904L9.71838 13.7696L8.51551 16.5248C8.4646 16.6298 8.39141 16.7118 8.29594 16.7708C8.20048 16.8299 8.10183 16.8594 8 16.8594C7.89817 16.8594 7.79952 16.8299 7.70406 16.7708C7.60859 16.7118 7.5354 16.6298 7.48449 16.5248L6.28162 13.7696L3.64678 12.4904C3.53222 12.4379 3.4463 12.3625 3.38902 12.264C3.33174 12.1656 3.3031 12.064 3.3031 11.959C3.3031 11.854 3.33174 11.7524 3.38902 11.654C3.4463 11.5556 3.52586 11.4801 3.62769 11.4276L6.28162 10.1287L7.48449 7.3932C7.5354 7.27512 7.60859 7.18656 7.70406 7.12752C7.79952 7.06848 7.89817 7.03896 8 7.03896C8.10183 7.03896 8.20048 7.06848 8.29594 7.12752C8.39141 7.18656 8.4646 7.27512 8.51551 7.3932L9.71838 10.1287L12.3723 11.4276C12.4869 11.4801 12.5696 11.5556 12.6205 11.654C12.6714 11.7524 12.6969 11.854 12.6969 11.959Z" fill="#E8C86E"/>
</svg>
