<?xml version="1.0" encoding="UTF-8"?>
<svg width="1200pt" height="1200pt" version="1.1" viewBox="0 0 1200 1200" xmlns="http://www.w3.org/2000/svg">
 <path d="m306.24 292.26c65.578-0.046875 122.02 46.219 134.86 110.53 12.797 64.312-21.562 128.72-82.125 153.79-60.562 25.125-130.45 3.9375-166.87-50.578-36.422-54.469-29.297-127.13 17.062-173.48 25.688-25.828 60.656-40.312 97.078-40.266zm208.97 430.31c5.9062-5.9062 13.969-9.2344 22.359-9.2344 8.3438 0 16.406 3.3281 22.312 9.2344l23.484 23.484 56.766-56.766c9.0469-9.0469 22.641-11.766 34.406-6.8438 11.812 4.875 19.5 16.406 19.5 29.203h-0.046875c0.046875 8.3906-3.2812 16.453-9.1875 22.359l-79.359 79.312c-0.32812 0.375-0.65625 0.65625-0.98438 0.9375l-0.1875 0.1875c-0.1875 0.09375-0.375 0.28125-0.51562 0.42188l-0.28125 0.28125-0.51562 0.375-0.23438 0.09375h-0.046875c-0.28125 0.23437-0.5625 0.46875-0.84375 0.65625-0.23438 0.09375-0.42188 0.23437-0.60938 0.375l-0.23438 0.1875c-0.65625 0.46875-1.3594 0.89062-2.1094 1.2656l-0.28125 0.1875-0.1875 0.09375c-0.1875 0.09375-0.42188 0.23438-0.60938 0.375l-0.51562 0.23438h-0.28125c-0.375 0.23437-0.79688 0.375-1.2656 0.51562l-0.42188 0.1875-0.65625 0.23438-0.23438 0.09375-1.125 0.375h0.046875c-0.42188 0.14062-0.84375 0.28125-1.2656 0.375l-0.42188 0.14062c-0.375 0.09375-0.70312 0.1875-1.0312 0.28125l-0.65625 0.09375-0.46875 0.09375 0.046875 0.046876c-0.46875 0.09375-0.9375 0.1875-1.4062 0.23437h-0.23438c-0.32812 0.046876-0.60938 0.09375-0.9375 0.09375h-0.84375v0.046876h-0.42188v0.046874h-1.5469l-0.046875 0.46875c-0.28125 0-0.60938-0.046874-0.89062-0.046874v0.046874c-1.8281 0 0.9375 0-0.70312-0.046874h-1.8281l0.046875-0.046876c-0.28125 0-0.60938-0.046874-0.89062-0.09375h-0.046875c-0.375 0-0.65625 0-0.9375-0.09375l-0.32812-0.046874c-0.28125 0-0.51562-0.09375-0.75-0.1875h-0.70312l-0.89062-0.1875h-0.23438c-0.28125 0-0.60938-0.1875-0.84375-0.23438l-0.75-0.32812c-0.75-0.1875-1.4531-0.46875-2.2031-0.70313l-0.1875-0.09375v-0.046874c-0.32812-0.09375-0.70312-0.28125-1.0312-0.42188l-0.65625-0.28125h-0.23438l-0.70312-0.375-0.42188-0.23437-0.70312-0.375-0.23438-0.09375c-0.1875-0.14063-0.42188-0.23438-0.5625-0.375l-0.60938-0.375c-0.09375 0 0.046875 0-0.23438-0.09375h0.046875c-0.23438-0.09375-0.46875-0.28125-0.70312-0.42188l-0.60938-0.46875-0.28125-0.23437-0.23438-0.09375c-0.1875-0.1875-0.42188-0.28125-0.5625-0.46875l-1.2656-1.0312-0.42188-0.375-0.1875-0.09375-47.109-47.109c-5.9531-5.9062-9.2812-13.969-9.2812-22.359 0-8.3906 3.3281-16.406 9.2812-22.312zm18.938 18.938c-0.89062 0.9375-1.4062 2.1562-1.4062 3.4219 0 1.2656 0.51562 2.4844 1.4062 3.375l45.844 45.891 0.28125 0.23438c0.28125 0.1875 0.65625 0.42187 0.9375 0.5625h0.09375l0.046875 0.046874c0.09375 0.046876 0.23438 0.14063 0.32812 0.14063 0.375 0.14062 0.70312 0.1875 1.0781 0.28125h0.65625c0.28125 0 0.5625 0 0.89062-0.09375h0.28125s0.5625-0.1875 0.65625-0.1875l0.28125-0.1875 0.46875-0.1875 0.28125-0.23438 0.23438-0.23437c26.344-23.719 53.953-53.859 79.406-79.359v-0.046874c0.89062-0.84375 1.4531-2.0625 1.4531-3.375h-0.046875c0-1.2656-0.51562-2.4844-1.4062-3.375-1.875-1.875-4.9219-1.875-6.8438 0l-66.234 66.188c-2.4844 2.5312-5.9062 3.9375-9.4688 3.9375s-6.9844-1.4062-9.4688-3.9375l-33-32.906c-0.89062-0.89063-2.1094-1.4062-3.375-1.4062s-2.4844 0.51562-3.375 1.4062zm277.87-23.297h0.046875c2.4844-2.625 5.9062-4.125 9.5156-4.1719 3.6094-0.046874 7.125 1.4062 9.6562 3.9375 2.5781 2.5781 3.9844 6.0469 3.9375 9.6562-0.046875 3.6094-1.5469 7.0312-4.1719 9.5156l-0.70312 0.70312 267.24 0.046876v-304.18h-44.906c-7.4062 0-13.406-6-13.406-13.406s6-13.406 13.406-13.406h58.359c7.3594 0.046875 13.359 6 13.359 13.359v330.94c0 7.4062-6 13.406-13.359 13.406h-280.64l0.70312 0.70312c2.625 2.4844 4.125 5.9062 4.1719 9.5156 0.046875 3.6562-1.3594 7.125-3.9375 9.6562-2.5312 2.5781-6.0469 3.9844-9.6562 3.9375s-7.0312-1.5469-9.5156-4.1719l-23.438-23.438c-0.42188-0.42188-0.84375-0.89062-1.2656-1.3594l-0.1875-0.23438-0.14062-0.1875v-0.09375l-0.1875-0.1875v-0.046875l-0.09375-0.23438-0.375-0.46875-0.09375-0.28125h-0.046875l-0.09375-0.23438-0.09375-0.28125h-0.046875c-0.84375-1.7812-1.2656-3.75-1.2656-5.6719 0-1.7344 0.32812-3.4688 1.0312-5.0625l0.1875-0.5625v-0.65625h0.046875v-0.23438l0.23438-0.46875 0.046875-0.1875v-0.09375l0.14062-0.1875v-0.09375l0.09375-0.14062v-0.09375l0.09375-0.1875 0.14062-0.09375v-0.09375l0.09375-0.14062 0.14062-0.1875 0.09375-0.14062 0.046875-0.09375 0.1875-0.23438h0.1875c0.1875-0.32812 0.42188-0.5625 0.70312-0.79688zm-692.58-311.95c-4.6406-5.2969-4.3594-13.312 0.60938-18.328 5.0156-5.0156 13.031-5.25 18.375-0.60938l23.484 23.484c0.28125 0.32812 0.60938 0.70312 0.9375 1.0781l0.09375 0.046876 0.1875 0.23437 0.046875 0.046876 0.09375 0.1875v0.14062l0.14062 0.1875v0.09375l0.14062 0.1875h0.09375l0.046875 0.1875 0.09375 0.14063v0.32812l0.1875 0.1875 0.09375 0.23438h0.046875l0.1875 0.46875 0.14062-0.09375c0.79688 1.7344 1.2188 3.6562 1.2656 5.5781-0.046875 1.9688-0.46875 3.8906-1.2656 5.6719l-0.09375 0.28125v0.046874l-0.09375 0.1875-0.046875 0.14063v0.5625l-0.1875 0.1875v0.28125l-0.09375 0.09375-0.046875 0.09375-0.09375 0.09375-0.14062 0.1875v0.14062l-0.14062 0.1875v0.14063l-0.09375 0.1875h-0.046875l-0.1875 0.23437h-0.09375c-0.28125 0.375-0.60938 0.75-0.98438 1.125l-23.672 23.391c-5.25 5.0156-13.547 4.9219-18.703-0.23438-5.1094-5.1094-5.25-13.406-0.23438-18.703l0.70312-0.65625h-17.766v304.13h296.72c3.6562-0.09375 7.125 1.2656 9.75 3.7969 2.5781 2.5312 4.0781 6 4.0781 9.6094s-1.5 7.0781-4.0781 9.6094c-2.625 2.4844-6.0938 3.8438-9.75 3.75h-310.13c-3.5625 0-6.9375-1.4062-9.4688-3.8906-2.4844-2.5312-3.8906-5.9531-3.8906-9.4688v-330.98c0-7.3594 6-13.359 13.359-13.359h31.172zm480.56 188.44c74.672-0.046874 138.94 52.734 153.52 125.95 14.578 73.266-24.609 146.58-93.609 175.18-68.953 28.594-148.55 4.4531-190.03-57.656-41.484-62.062-33.375-144.84 19.453-197.63 29.297-29.391 69.141-45.938 110.67-45.844zm91.734 64.781v-0.046874c-43.734-43.875-112.41-50.719-163.97-16.359-51.562 34.359-71.672 100.36-48 157.64 23.625 57.281 84.469 89.859 145.26 77.812 60.797-12.047 104.58-65.344 104.62-127.31 0.046875-34.406-13.594-67.406-37.922-91.781zm202.03-330.74c31.078-0.046875 59.062 18.656 70.969 47.344 11.859 28.641 5.2969 61.688-16.641 83.625-1.6875 1.6406-3.375 3.2812-5.2031 4.7344 2.5312 0.98438 5.0625 2.0625 7.5938 3.1875v0.046875c12.938 5.8125 24.844 13.641 35.344 23.156 22.547-33.891 24.656-77.438 5.4375-113.34-19.266-35.906-56.672-58.312-97.406-58.312-40.688 0-78.141 22.406-97.359 58.312s-17.156 79.453 5.4375 113.34c10.5-9.5156 22.406-17.344 35.344-23.156 2.4375-1.1719 5.0625-2.2031 7.5938-3.1875-1.8281-1.4531-3.5625-3.0938-5.25-4.7344v-0.046875c-21.984-21.938-28.5-54.938-16.641-83.625 11.906-28.688 39.891-47.391 70.922-47.344zm35.391 41.391c-16.875-16.922-43.312-19.547-63.188-6.3281-19.875 13.266-27.656 38.672-18.516 60.75 9.0938 22.078 32.531 34.641 55.969 30s40.312-25.172 40.312-49.031c0.046875-13.266-5.2031-26.016-14.578-35.391zm39.234 141c-8.5781-7.875-18.375-14.297-28.969-19.125-40.266-18.281-87.562-10.734-120.19 19.125 42.234 38.625 106.92 38.625 149.16 0zm-74.531-218.86c65.484 0 121.87 46.266 134.63 110.53 12.797 64.219-21.562 128.53-82.078 153.61-60.516 25.078-130.31 3.8906-166.69-50.531-36.422-54.469-29.297-127.03 17.016-173.34 25.734-25.828 60.703-40.312 97.125-40.266zm-293.86 36.469c31.031-0.046875 59.062 18.656 70.969 47.344 11.859 28.641 5.2969 61.688-16.641 83.625-1.6406 1.6875-3.375 3.2812-5.2031 4.7344 2.5312 0.98438 5.0625 2.0625 7.5938 3.1875v0.046875c12.891 5.8125 24.844 13.641 35.344 23.156 22.594-33.891 24.656-77.484 5.4375-113.39s-56.672-58.312-97.406-58.312-78.188 22.406-97.406 58.312c-19.266 35.906-17.156 79.5 5.4375 113.39 10.5-9.5156 22.406-17.344 35.344-23.156 2.5312-1.1719 5.0625-2.2031 7.5938-3.1875v-0.046875c-1.8281-1.4531-3.5625-3.0469-5.2031-4.7344-21.938-21.938-28.5-54.938-16.594-83.625 11.859-28.688 39.891-47.391 70.922-47.344zm35.391 41.391c-16.875-16.922-43.359-19.594-63.234-6.3281-19.875 13.219-27.609 38.672-18.469 60.75 9.0938 22.078 32.531 34.641 55.969 30 23.391-4.6406 40.312-25.172 40.312-49.078 0.046875-13.266-5.2031-25.969-14.578-35.344zm39.141 141c-8.5781-7.8281-18.328-14.297-28.922-19.125-29.016-13.078-62.297-13.078-91.312 0-10.547 4.875-20.25 11.297-28.828 19.125 42.234 38.625 106.92 38.625 149.16 0zm-74.531-218.86c65.578-0.046876 122.02 46.219 134.86 110.53 12.797 64.312-21.562 128.72-82.125 153.79-60.562 25.125-130.45 3.9375-166.87-50.578-36.422-54.469-29.297-127.13 17.062-173.48 25.734-25.828 60.656-40.312 97.078-40.266zm-293.76 36.469c31.031-0.046876 59.062 18.656 70.922 47.344 11.906 28.641 5.3438 61.688-16.594 83.625-1.6875 1.6875-3.4219 3.2812-5.2031 4.7344 2.5312 0.98438 5.0625 2.0625 7.5938 3.1875l-0.046876 0.046876c12.938 5.8125 24.891 13.641 35.391 23.156 22.547-33.891 24.656-77.484 5.3906-113.39-19.219-35.906-56.672-58.312-97.406-58.312-40.734 0-78.141 22.406-97.406 58.312-19.219 35.906-17.156 79.5 5.4375 113.39 10.5-9.5156 22.453-17.344 35.344-23.156 2.5312-1.1719 5.0625-2.2031 7.5938-3.1875v-0.046876c-1.8281-1.4531-3.5625-3.0469-5.2031-4.7344-21.938-21.938-28.5-54.938-16.641-83.625 11.906-28.641 39.844-47.344 70.875-47.344zm35.391 41.391h-0.046874c-16.828-16.828-43.219-19.406-63-6.1406-19.781 13.219-27.469 38.578-18.375 60.562 9.1406 22.031 32.484 34.5 55.828 29.859 23.391-4.6406 40.219-25.078 40.219-48.891 0.046876-13.266-5.25-26.016-14.672-35.391zm39.234 141c-8.625-7.8281-18.375-14.297-28.922-19.125-29.062-13.078-62.297-13.078-91.359 0-10.547 4.8281-20.297 11.297-28.922 19.125 42.234 38.625 106.97 38.625 149.21 0z"/>
</svg>
