<?xml version="1.0" encoding="UTF-8"?>
<svg width="1200pt" height="1200pt" version="1.1" viewBox="0 0 1200 1200" xmlns="http://www.w3.org/2000/svg">
 <path d="m658.4 722.76c21.328-16.125 34.969-40.312 37.781-66.891 2.8125-26.531-5.5312-53.062-22.969-73.266v-158.26h101.95-0.046875c5.4375 0 10.312-3.2344 12.375-8.25s0.9375-10.734-2.9062-14.578l-175.18-175.08c-5.2031-5.1562-13.641-5.1562-18.844 0l-175.13 175.13c-3.8438 3.8438-4.9688 9.5625-2.9062 14.578 2.0625 5.0156 6.9375 8.25 12.328 8.25h101.91v158.29-0.046875c-17.438 20.203-25.734 46.734-22.969 73.266 2.8125 26.531 16.5 50.719 37.781 66.844-54.094 13.172-102.23 44.109-136.64 87.844-34.406 43.781-53.156 97.828-53.25 153.47 0 3.5625 1.4062 6.9375 3.8906 9.4219 2.5312 2.5312 5.9062 3.9375 9.4688 3.9375h469.87c3.5625 0 6.9375-1.4062 9.4688-3.9375 2.4844-2.4844 3.8906-5.8594 3.8906-9.4219-0.09375-55.641-18.844-109.69-53.25-153.47-34.406-43.734-82.547-74.672-136.64-87.844zm-201.32-325.08 142.92-142.92 142.92 142.92h-83.109c-7.3594 0-13.312 5.9531-13.312 13.312v150c-28.969-15.891-64.031-15.891-93 0v-150c0-7.3594-5.9531-13.312-13.312-13.312zm72.891 248.06c0-28.312 17.062-53.859 43.219-64.688 26.203-10.875 56.297-4.875 76.359 15.188 20.016 20.016 26.016 50.156 15.188 76.312-10.875 26.156-36.422 43.219-64.734 43.219-38.672-0.046875-69.984-31.359-70.031-70.031zm-151.22 305.02c4.5469-75.891 47.672-144.19 114.28-180.89 66.609-36.656 147.32-36.656 213.94 0 66.609 36.703 109.73 105 114.28 180.89zm697.36-346.64-144-144c-5.2031-5.2031-13.641-5.2031-18.891 0l-144 144c-3.7969 3.8438-4.9688 9.5625-2.9062 14.578 2.0625 4.9688 6.9375 8.25 12.375 8.25h81.469v258.14c0 3.5625 1.4062 6.9375 3.8906 9.4219 2.5312 2.5312 5.9062 3.9375 9.4219 3.8906h98.438c3.5156 0 6.8906-1.4062 9.4219-3.8906 2.4844-2.4844 3.8906-5.9062 3.8906-9.4219v-258.19h81.469c5.3906 0 10.266-3.2344 12.375-8.25 2.0625-4.9688 0.89062-10.734-2.9531-14.531zm-104.25-3.8906c-7.3594 0-13.359 5.9531-13.359 13.312v258.24h-71.719v-258.24c0-7.3594-5.9531-13.312-13.312-13.312h-62.625l111.84-111.84 111.84 111.84zm-538.13 18.422c2.0625-4.9688 0.89062-10.688-2.9062-14.531l-144-144c-5.2031-5.2031-13.641-5.2031-18.844 0l-144 144c-3.8438 3.8438-4.9688 9.5625-2.9062 14.578 2.0625 4.9688 6.9375 8.25 12.328 8.25h81.375v258.14c0 3.5625 1.4062 6.9375 3.9375 9.4219 2.4844 2.5312 5.8594 3.9375 9.4219 3.8906h98.391c3.5156 0.046875 6.9375-1.3594 9.4219-3.8906 2.5312-2.4844 3.9375-5.8594 3.8906-9.4219v-258.19h81.516c5.3906 0 10.312-3.2344 12.375-8.25zm-107.16-18.422c-3.5625 0-6.9375 1.4062-9.4688 3.8906-2.4844 2.4844-3.8906 5.9062-3.8906 9.4219v258.24h-71.766v-258.24c0-7.3594-6-13.312-13.359-13.312h-62.625l111.84-111.84 111.84 111.84z"/>
</svg>
