<?xml version="1.0" encoding="UTF-8"?>
<svg width="1200pt" height="1200pt" version="1.1" viewBox="0 0 1200 1200" xmlns="http://www.w3.org/2000/svg">
 <path d="m787.5 450c62.137 0 112.5 50.363 112.5 112.5v375c0 10.352-4.1992 19.727-10.988 26.512l-101.51 101.51v96.977c0 20.738-16.762 37.5-37.5 37.5s-37.5-16.762-37.5-37.5v-112.5c0-10.352 4.1992-19.727 10.988-26.512l101.51-101.51v-359.48c0-20.699-16.762-37.5-37.5-37.5h-375c-20.738 0-37.5 16.801-37.5 37.5v359.48l101.51 101.51c6.7891 6.7852 10.988 16.16 10.988 26.512v112.5c0 20.738-16.762 37.5-37.5 37.5s-37.5-16.762-37.5-37.5v-96.977l-101.51-101.51c-6.7891-6.7852-10.988-16.16-10.988-26.512v-375c0-62.137 50.363-112.5 112.5-112.5z"/>
 <path d="m1200 937.5c0 10.352-4.1992 19.727-10.988 26.512l-101.51 101.51v96.977c0 20.738-16.762 37.5-37.5 37.5s-37.5-16.762-37.5-37.5v-112.5c0-10.352 4.1992-19.727 10.988-26.512l101.51-101.51v-284.48c0-20.699-16.762-37.5-37.5-37.5h-75c-20.738 0-37.5-16.762-37.5-37.5s16.762-37.5 37.5-37.5h75c62.137 0 112.5 50.363 112.5 112.5z"/>
 <path d="m0 637.5c0-62.137 50.363-112.5 112.5-112.5h75c20.738 0 37.5 16.762 37.5 37.5s-16.762 37.5-37.5 37.5h-75c-20.738 0-37.5 16.801-37.5 37.5v284.48l101.51 101.51c6.7891 6.7852 10.988 16.16 10.988 26.512v112.5c0 20.738-16.762 37.5-37.5 37.5s-37.5-16.762-37.5-37.5v-96.977l-101.51-101.51c-6.7891-6.7852-10.988-16.16-10.988-26.512z"/>
 <path d="m637.5 0h-75c-82.836 0-150 67.164-150 150v75c0 82.836 67.164 150 150 150h75c82.836 0 150-67.164 150-150v-75c0-82.836-67.164-150-150-150zm75 225c0 41.398-33.602 75-75 75h-75c-41.398 0-75-33.602-75-75v-75c0-41.398 33.602-75 75-75h75c41.398 0 75 33.602 75 75z"/>
 <path d="m225 75c-82.836 0-150 67.164-150 150v75c0 82.836 67.164 150 150 150h37.5c20.738 0 37.5-16.762 37.5-37.5s-16.762-37.5-37.5-37.5h-37.5c-41.398 0-75-33.602-75-75v-75c0-41.398 33.602-75 75-75h75c20.738 0 37.5-16.762 37.5-37.5s-16.762-37.5-37.5-37.5z"/>
 <path d="m1125 300c0 82.836-67.164 150-150 150h-37.5c-20.738 0-37.5-16.762-37.5-37.5s16.762-37.5 37.5-37.5h37.5c41.398 0 75-33.602 75-75v-75c0-41.398-33.602-75-75-75h-75c-20.738 0-37.5-16.762-37.5-37.5s16.762-37.5 37.5-37.5h75c82.836 0 150 67.164 150 150z"/>
 <path d="m637.5 675c-20.738 0-37.5-16.762-37.5-37.5s16.762-37.5 37.5-37.5h75c20.738 0 37.5 16.762 37.5 37.5s-16.762 37.5-37.5 37.5z"/>
</svg>
