<svg xmlns="http://www.w3.org/2000/svg" xmlns:xlink="http://www.w3.org/1999/xlink" id="Laag_1" x="0px" y="0px" width="432px" height="360px" viewBox="0 0 432 360" style="enable-background:new 0 0 432 360;" xml:space="preserve"><style type="text/css">	.st0{fill:#3F3F3F;}	.st1{fill:url(#SVGID_1_);}</style><g>	<path class="st0" d="M82.4,286.2c5.2,5.7,7.9,13.5,7.9,23.4v43.8H67.4v-40.7c0-5-1.3-8.9-3.9-11.7c-2.6-2.8-6.1-4.2-10.5-4.2  c-4.4,0-7.9,1.4-10.5,4.2c-2.6,2.8-3.9,6.7-3.9,11.7v40.7h-23v-74.9h23v9.9c2.3-3.3,5.5-5.9,9.4-7.9c3.9-1.9,8.4-2.9,13.3-2.9  C70.2,277.7,77.2,280.5,82.4,286.2z"></path>	<path class="st0" d="M129.2,254.1v99.4h-23v-99.4H129.2z"></path>	<path class="st0" d="M263.7,286.2c5.5,5.6,8.3,13.5,8.3,23.5v43.8h-22.8v-40.7c0-4.8-1.3-8.6-3.8-11.2c-2.6-2.6-6.1-4-10.5-4  c-4.5,0-8,1.3-10.5,4c-2.6,2.6-3.8,6.4-3.8,11.2v40.7h-22.8v-40.7c0-4.8-1.3-8.6-3.8-11.2c-2.6-2.6-6.1-4-10.5-4  c-4.5,0-8,1.3-10.5,4c-2.6,2.6-3.8,6.4-3.8,11.2v40.7h-23v-74.9h23v9.4c2.3-3.1,5.4-5.6,9.1-7.5c3.8-1.8,8-2.8,12.8-2.8  c5.6,0,10.7,1.2,15.1,3.6c4.4,2.4,7.9,5.9,10.4,10.3c2.6-4.1,6.1-7.5,10.6-10.1c4.5-2.6,9.4-3.9,14.6-3.9  C250.8,277.7,258.2,280.5,263.7,286.2z"></path>	<path class="st0" d="M329.8,334v19.5h-11.7c-8.3,0-14.8-2-19.5-6.1c-4.7-4.1-7-10.7-7-19.9v-29.8h-9.1v-19.1h9.1v-18.3h23v18.3h15  v19.1h-15v30.1c0,2.2,0.5,3.9,1.6,4.8c1.1,1,2.9,1.5,5.4,1.5H329.8z"></path></g><g>	<path class="st0" d="M342.4,295.6c2.9-5.8,6.9-10.3,11.9-13.4c5-3.1,10.6-4.7,16.8-4.7c4.9,0,9.4,1,13.5,3.1  c4.1,2.1,7.3,4.8,9.6,8.3v-34.8h23v99.4h-23v-10.7c-2.1,3.6-5.2,6.4-9.2,8.6c-4,2.1-8.6,3.2-13.9,3.2c-6.2,0-11.8-1.6-16.8-4.8  c-5-3.2-9-7.7-11.9-13.6c-2.9-5.9-4.4-12.6-4.4-20.3C338,308.1,339.5,301.4,342.4,295.6z M389.4,302.4c-3.2-3.3-7-5-11.6-5  s-8.4,1.6-11.6,4.9c-3.2,3.3-4.8,7.8-4.8,13.5c0,5.7,1.6,10.3,4.8,13.6c3.2,3.4,7.1,5,11.6,5s8.4-1.7,11.6-5  c3.2-3.3,4.8-7.8,4.8-13.6C394.2,310.2,392.6,305.7,389.4,302.4z"></path></g><linearGradient id="SVGID_1_" gradientUnits="userSpaceOnUse" x1="1.0457" y1="104.4844" x2="430.9629" y2="104.4844">	<stop offset="0" style="stop-color:#0C969A"></stop>	<stop offset="0.5" style="stop-color:#54B9AC"></stop>	<stop offset="1" style="stop-color:#0C969A"></stop></linearGradient><path class="st1" d="M53.4,104.5c0,2-0.2,4.1,0,6.1c3.2,28.1,28.2,48.1,55.4,46c12.8-1,23.8-5.8,32.9-14.7 c12.1-11.7,23.8-23.8,35.8-35.7c1.3-1.3,1.5-2.1,0.1-3.5c-12.1-12-23.9-24.2-36.2-36c-12-11.6-26.7-16.3-43.2-14 C72,56.3,52.7,78.9,53.4,104.5 M379,104.3c0.2-1.8-0.2-3.8-0.5-5.8c-3.2-27-25.6-46.6-52.6-46.3c-14.1,0.1-26.3,5.5-36.4,15.5 c-11.6,11.5-23.1,23.2-34.7,34.7c-1.8,1.8-1.7,2.8,0.1,4.5c11.7,11.6,23.2,23.3,34.9,34.8c12.2,11.9,26.9,16.8,43.7,14.7 C359.3,153.1,379,130.4,379,104.3 M431,105.5c-0.6,24.6-8.6,47.3-25.3,66.7c-17,19.8-38.7,31.8-64.5,35.4 c-31.1,4.3-58.9-4-82.8-24.5c-12.5-10.8-23.5-23.2-35.3-34.7c-1.8-1.8-3.7-3.5-5.3-5.4c-1.4-1.5-2.3-1.4-3.7,0 c-7.7,7.8-15.4,15.5-23.1,23.2c-7.6,7.5-14.7,15.5-23.3,21.8c-16.5,12-34.9,19-55.3,20.4c-20.4,1.4-39.5-3-57.3-12.7 c-17.7-9.7-31.3-23.6-41.2-41.3c-6.6-11.9-10.5-24.6-12.1-37.9c-2.5-21,1.4-41,11-59.8C20.4,41.8,31,29.5,44.6,19.9 c16.1-11.5,34.1-18,54-19.3C119-0.8,138,3.8,155.9,13.4c8.1,4.4,15.5,9.9,22.1,16.4c12,11.9,24,23.9,35.9,35.9 c1.6,1.7,2.6,1.7,4.3,0c11.7-11.9,23.5-23.7,35.4-35.4c17-16.6,37.3-26.3,60.9-29.3c21-2.6,40.9,1.1,59.6,10.7 c19,9.7,33.8,24.1,44.1,43C426.6,70.3,430.6,86.9,431,105.5"></path></svg>