<svg width="46" height="40" viewBox="0 0 46 40" fill="none" xmlns="http://www.w3.org/2000/svg">
<path d="M36.0151 35.781C36.0151 34.9412 36.1714 34.2038 36.4839 33.569C36.8062 32.9342 37.2408 32.4459 37.7877 32.1041C38.3346 31.7623 38.9449 31.5914 39.6188 31.5914C40.1559 31.5914 40.6442 31.7037 41.0837 31.9283C41.5329 32.153 41.8845 32.4557 42.1384 32.8366V29.0425H44.6434V39.8828H42.1384V38.7108C41.9041 39.1015 41.5671 39.414 41.1277 39.6484C40.6979 39.8828 40.195 40 39.6188 40C38.9449 40 38.3346 39.8291 37.7877 39.4872C37.2408 39.1357 36.8062 38.6425 36.4839 38.0077C36.1714 37.3631 36.0151 36.6209 36.0151 35.781ZM42.1384 35.7957C42.1384 35.1707 41.9626 34.6775 41.6111 34.3161C41.2693 33.9548 40.8493 33.7741 40.3513 33.7741C39.8532 33.7741 39.4284 33.9548 39.0768 34.3161C38.735 34.6677 38.5641 35.156 38.5641 35.781C38.5641 36.4061 38.735 36.9041 39.0768 37.2752C39.4284 37.6366 39.8532 37.8173 40.3513 37.8173C40.8493 37.8173 41.2693 37.6366 41.6111 37.2752C41.9626 36.9139 42.1384 36.4207 42.1384 35.7957Z" fill="#AEAEAE"/>
<path d="M35.1181 37.7586V39.8827H33.8437C32.9354 39.8827 32.2274 39.663 31.7196 39.2235C31.2117 38.7743 30.9578 38.0467 30.9578 37.0408V33.7887H29.9617V31.7086H30.9578V29.7163H33.4628V31.7086H35.1035V33.7887H33.4628V37.0701C33.4628 37.3143 33.5214 37.4901 33.6386 37.5975C33.7558 37.7049 33.9511 37.7586 34.2245 37.7586H35.1181Z" fill="#AEAEAE"/>
<path d="M25.4851 31.6206C26.5007 31.6206 27.3064 31.9282 27.9021 32.5435C28.5076 33.1588 28.8104 34.0133 28.8104 35.1071V39.8827H26.32V35.444C26.32 34.9166 26.1784 34.5113 25.8952 34.2281C25.6218 33.9352 25.2409 33.7887 24.7526 33.7887C24.2643 33.7887 23.8785 33.9352 23.5953 34.2281C23.3219 34.5113 23.1852 34.9166 23.1852 35.444V39.8827H20.6948V35.444C20.6948 34.9166 20.5532 34.5113 20.27 34.2281C19.9965 33.9352 19.6157 33.7887 19.1274 33.7887C18.6391 33.7887 18.2533 33.9352 17.9701 34.2281C17.6966 34.5113 17.5599 34.9166 17.5599 35.444V39.8827H15.0549V31.7085H17.5599V32.7339C17.8138 32.3921 18.1459 32.1236 18.5561 31.9282C18.9662 31.7231 19.4301 31.6206 19.9477 31.6206C20.563 31.6206 21.1099 31.7524 21.5884 32.0161C22.0767 32.2798 22.4576 32.6558 22.731 33.1441C23.0142 32.6949 23.4 32.3286 23.8883 32.0454C24.3766 31.7622 24.9089 31.6206 25.4851 31.6206Z" fill="#AEAEAE"/>
<path d="M13.2394 29.0425V39.8828H10.7344V29.0425H13.2394Z" fill="#AEAEAE"/>
<path d="M5.8442 31.6206C6.80127 31.6206 7.56302 31.9331 8.12945 32.5581C8.70565 33.1734 8.99374 34.023 8.99374 35.1071V39.8827H6.50341V35.444C6.50341 34.8971 6.3618 34.4723 6.07858 34.1695C5.79537 33.8668 5.41449 33.7154 4.93596 33.7154C4.45742 33.7154 4.07655 33.8668 3.79333 34.1695C3.51012 34.4723 3.36851 34.8971 3.36851 35.444V39.8827H0.863525V31.7085H3.36851V32.7925C3.62243 32.4312 3.96424 32.148 4.39394 31.9429C4.82365 31.728 5.30707 31.6206 5.8442 31.6206Z" fill="#AEAEAE"/>
<mask id="mask0_258_27" style="mask-type:luminance" maskUnits="userSpaceOnUse" x="0" y="0" width="46" height="23">
<path d="M45.9517 0H0V22.2705H45.9517V0Z" fill="white"/>
</mask>
<g mask="url(#mask0_258_27)">
<path d="M45.9516 11.2401C45.8891 13.8678 45.036 16.2958 43.2518 18.3732C41.4296 20.4946 39.1189 21.7723 36.3615 22.1528C33.0386 22.6115 30.0625 21.7281 27.5159 19.5347C26.1779 18.3824 25.0022 17.0558 23.7402 15.821C23.5474 15.6325 23.3493 15.4482 23.1698 15.2476C23.0242 15.0847 22.9208 15.0947 22.7695 15.2483C21.9514 16.0788 21.1278 16.9039 20.2987 17.7236C19.4896 18.5246 18.7328 19.3837 17.8066 20.0581C16.0425 21.3432 14.0807 22.0883 11.8921 22.2409C9.77024 22.3815 7.65237 21.9128 5.78791 20.8901C3.92345 19.8674 2.39006 18.3332 1.3683 16.4683C0.67778 15.2146 0.239697 13.8377 0.0788251 12.4155C-0.187716 10.1702 0.223172 8.0373 1.25772 6.02288C2.05441 4.45725 3.21985 3.10882 4.65361 2.09381C6.34348 0.875552 8.34377 0.160694 10.423 0.0319551C12.6054 -0.114803 14.6375 0.370044 16.5467 1.40378C17.413 1.87196 18.2074 2.46253 18.9053 3.15729C20.1879 4.4339 21.4668 5.71421 22.742 6.9982C22.9169 7.17506 23.0202 7.18328 23.1995 7.00195C24.4532 5.73356 25.7063 4.46409 26.9813 3.21732C28.7379 1.47246 31.0307 0.369735 33.4903 0.0867997C35.7351 -0.19314 37.8659 0.208637 39.865 1.22567C41.8702 2.235 43.5153 3.8383 44.5758 5.8169C45.4834 7.47831 45.9157 9.25728 45.9514 11.2396M40.3993 11.1099C40.4023 10.9028 40.3849 10.6959 40.3473 10.4923C40.1938 9.11493 39.5319 7.84442 38.4911 6.92934C37.4503 6.01426 36.1055 5.52045 34.7199 5.54455C33.2146 5.56009 31.908 6.13337 30.8343 7.19703C29.5927 8.42693 28.3651 9.67129 27.1221 10.9007C26.9312 11.0893 26.9435 11.2026 27.1278 11.3844C28.3769 12.6196 29.6058 13.8751 30.8616 15.1036C32.1613 16.3753 33.7407 16.8973 35.5365 16.6742C38.2885 16.3323 40.3976 13.9097 40.3993 11.1103M5.59785 11.1347C5.58665 11.3517 5.58772 11.5692 5.60107 11.7861C5.76628 13.2097 6.47334 14.515 7.57551 15.4311C8.67767 16.3472 10.0903 16.8037 11.5201 16.7058C12.8912 16.6031 14.0664 16.0874 15.0402 15.1397C16.3303 13.8841 17.5884 12.5957 18.8655 11.3268C19.0049 11.1883 19.0272 11.1028 18.8744 10.9517C17.5827 9.67272 16.3189 8.36494 15.0074 7.10673C13.72 5.87165 12.1524 5.3668 10.3852 5.60609C7.58816 5.9842 5.52148 8.39951 5.59749 11.1352" fill="#AEAEAE"/>
</g>
</svg>
