<svg width="498" height="159" viewBox="0 0 498 159" fill="none" xmlns="http://www.w3.org/2000/svg">
<path d="M497.751 52.0801V75.8101H488.301C469.821 75.8101 458.271 85.6801 458.271 105.84V156.24H432.651V52.7101H456.801L458.271 67.8301C462.681 57.5401 472.551 50.6101 486.411 50.6101C489.981 50.6101 493.551 51.0301 497.751 52.0801Z" fill="#3E3E3E"/>
<path d="M304.794 52.5H319.704V39.9C319.704 11.76 333.984 0 354.984 0C358.974 0 363.804 0.209998 368.214 1.05V22.89H359.184C347.634 22.89 345.114 29.61 345.114 39.9V52.5H386.484V0H412.104V156.24H386.484V73.92H345.114V156.24H319.704V73.92H304.794V52.5Z" fill="#3E3E3E"/>
<path d="M190.606 104.16C190.606 71.8201 213.916 49.5601 246.046 49.5601C278.176 49.5601 301.486 71.8201 301.486 104.16C301.486 136.5 278.176 158.76 246.046 158.76C213.916 158.76 190.606 136.5 190.606 104.16ZM216.226 104.16C216.226 123.06 228.406 135.87 246.046 135.87C263.686 135.87 275.866 123.06 275.866 104.16C275.866 85.2601 263.686 72.4501 246.046 72.4501C228.406 72.4501 216.226 85.2601 216.226 104.16Z" fill="#3E3E3E"/>
<path d="M189.141 52.0801V75.8101H179.691C161.211 75.8101 149.661 85.6801 149.661 105.84V156.24H124.041V52.7101H148.191L149.661 67.8301C154.071 57.5401 163.941 50.6101 177.801 50.6101C181.371 50.6101 184.941 51.0301 189.141 52.0801Z" fill="#3E3E3E"/>
<path d="M60.69 103.32H26.88V156.24H0V2.72998H60.69C91.56 2.72998 111.51 22.89 111.51 52.92C111.51 82.53 91.35 103.32 60.69 103.32ZM55.44 26.67H26.88V79.38H55.02C73.5 79.38 83.37 69.51 83.37 52.71C83.37 35.91 73.29 26.67 55.44 26.67Z" fill="#3E3E3E"/>
</svg>
