<svg width="329" height="458" viewBox="0 0 329 458" fill="none" xmlns="http://www.w3.org/2000/svg">
<circle cx="73" cy="186" r="37" fill="#B4C96D"/>
<circle cx="203.5" cy="346.5" r="20.5" fill="#E8C86E"/>
<circle cx="266.5" cy="280.5" r="8.5" fill="#C7A78F"/>
<circle cx="311.5" cy="424.5" r="8.5" fill="#C7A78F"/>
<circle cx="178" cy="237" r="17" fill="#C7A78F"/>
<circle cx="187" cy="441" r="17" fill="#C7A78F"/>
<circle cx="124" cy="78" r="17" fill="#C7A78F"/>
<circle cx="312" cy="44" r="17" fill="#C7A78F"/>
<circle cx="212.5" cy="8.5" r="8.5" fill="#C7A78F"/>
<circle cx="44.5" cy="52.5" r="8.5" fill="#C7A78F"/>
<circle cx="97.5" cy="323.5" r="8.5" fill="#C7A78F"/>
<circle cx="8.5" cy="245.5" r="8.5" fill="#C7A78F"/>
<circle cx="35" cy="340" r="18" fill="#C7A78F"/>
<circle cx="16.5" cy="424.5" r="8.5" fill="#C7A78F"/>
<circle cx="200.5" cy="123.5" r="20.5" fill="#E8C86E"/>
<circle cx="271.5" cy="199.5" r="20.5" fill="#E8C86E"/>
<line x1="105.781" y1="168.55" x2="181.781" y2="131.55" stroke="black"/>
<line x1="110.025" y1="191.501" x2="251.025" y2="198.501" stroke="black"/>
<line x1="93.3838" y1="216.68" x2="189.384" y2="331.68" stroke="black"/>
</svg>
